PathFileType	4	(X/Y/Z)	C:\Users\xlb\Desktop\20210112\20210112\bx_n_10_501.trc
DataRate	CameraRate	NumFrames	NumMarkers	Units	OrigDataRate	OrigDataStartFrame	OrigNumFrames
50.00	50.00	       4	43	mm	50.00	273	       436
Frame#	Time	Top.Head			R.Acromium			L.Acromium			Sternum			R.ASIS			L.ASIS			V.Sacral			R.Thigh.Upper			R.Thigh.Front			R.Thigh.Rear			R.Knee.Lat			R.Knee.Med			R.Shank.Upper			R.Shank.Front			R.Shank.Rear			R.Ankle.Lat			R.Midfoot.Lat			R.Toe.Lat			R.Toe.Tip			R.Toe.Med			R.Ankle.Med			R.Midfoot.Sup			R.Heel			L.Thigh.Upper			L.Thigh.Front			L.Thigh.Rear			L.Knee.Lat			L.Knee.Med			L.Shank.Upper			L.Shank.Front			L.Shank.Rear			L.Ankle.Lat			L.Midfoot.Lat			L.Toe.Lat			L.Toe.Tip			L.Toe.Med			L.Ankle.Med			L.Midfoot.Sup			L.Heel			origin1 front left			origin2 front right			origin 3 back right			origin 4 back leftt			
		X1	Y1	Z1	X2	Y2	Z2	X3	Y3	Z3	X4	Y4	Z4	X5	Y5	Z5	X6	Y6	Z6	X7	Y7	Z7	X8	Y8	Z8	X9	Y9	Z9	X10	Y10	Z10	X11	Y11	Z11	X12	Y12	Z12	X13	Y13	Z13	X14	Y14	Z14	X15	Y15	Z15	X16	Y16	Z16	X17	Y17	Z17	X18	Y18	Z18	X19	Y19	Z19	X20	Y20	Z20	X21	Y21	Z21	X22	Y22	Z22	X23	Y23	Z23	X24	Y24	Z24	X25	Y25	Z25	X26	Y26	Z26	X27	Y27	Z27	X28	Y28	Z28	X29	Y29	Z29	X30	Y30	Z30	X31	Y31	Z31	X32	Y32	Z32	X33	Y33	Z33	X34	Y34	Z34	X35	Y35	Z35	X36	Y36	Z36	X37	Y37	Z37	X38	Y38	Z38	X39	Y39	Z39	X40	Y40	Z40	X41	Y41	Z41	X42	Y42	Z42	X43	Y43	Z43	

273	5.440	-240.02701	117.09963	1526.07764	-440.10730	-65.80046	1310.02954	-453.39374	273.81476	1313.55115	-542.99921	94.03174	1136.14392	-758.10895	-14.16296	1010.51715	-769.00317	232.73596	1032.14490	-948.43231	81.00755	1084.05396	-828.08582	-80.52420	862.42090	-741.61139	-12.87177	804.97565	-826.27039	-71.31658	746.20227	-813.25446	-43.09476	606.57153	-800.10608	64.29861	566.32513	-810.40564	-40.16156	559.15619	-751.98462	12.72949	524.61469	-832.13361	-54.69545	471.92026	-761.57654	-23.44550	202.00404	-648.51343	-68.98926	160.89188	-607.17065	-76.34793	156.96381	-550.03674	-28.80514	162.53629	-598.35217	26.01308	166.24904	-726.29437	65.71871	218.81808	-673.06396	51.48367	161.14671	-793.42188	35.99882	172.29001	-861.24261	278.15997	865.14001	-749.60529	208.16949	816.85443	-840.23352	272.40909	731.62671	-844.60956	249.12257	628.02563	-791.79443	142.17543	571.27563	-829.91797	246.03493	564.72089	-766.98248	204.62386	536.85242	-851.04285	258.38995	484.63577	-773.21814	229.49008	202.12225	-661.29449	299.23050	156.33871	-624.69519	307.62509	157.79755	-557.80878	255.51472	163.80672	-594.15839	220.27129	174.01422	-719.76514	157.07672	222.39487	-676.04443	175.14339	161.98596	-798.20795	179.39502	181.86366	-527.99725	304.07043	146.25354	-517.96454	-72.72749	142.61848	-875.88611	-78.78613	141.17052	-882.68219	295.95663	144.49406	
274	5.460	-236.01709	117.17702	1516.72119	-436.32245	-64.68394	1302.07629	-449.80304	273.70520	1306.03064	-541.69952	94.05554	1130.34729	-760.65509	-13.97750	1009.11304	-770.95886	233.18538	1030.72815	-950.12476	81.62325	1084.41064	-830.48663	-80.36206	862.13654	-744.04767	-12.16877	804.71899	-828.28387	-70.99361	745.78552	-814.69952	-42.82371	606.40033	-801.59161	64.38809	566.15283	-811.63562	-39.99261	559.05670	-753.04126	12.97251	524.58081	-833.14514	-54.43423	471.58112	-761.58209	-23.48303	201.97166	-648.41315	-68.91238	160.83171	-607.17566	-76.31245	156.98912	-550.09662	-28.75813	162.52789	-598.36975	26.04098	166.24051	-726.44958	65.75331	218.69835	-673.02631	51.53584	161.22762	-793.43011	36.02102	172.27968	-863.60022	278.67288	864.64868	-751.93768	208.53923	816.55420	-842.01782	272.88507	731.15430	-846.20905	249.54498	627.49976	-793.28833	142.43484	571.10736	-831.39136	246.43073	564.29919	-768.32245	204.91333	536.61066	-852.22675	258.74048	484.18027	-773.27362	229.52246	201.98817	-661.25623	299.26038	156.27463	-624.60968	307.67520	157.75584	-557.89307	255.55070	163.79166	-594.14093	220.26495	174.10213	-719.77454	157.14162	222.59425	-676.09680	175.18057	162.00594	-798.23010	179.50220	181.82381	-528.00824	304.07629	146.26860	-517.92303	-72.70724	142.58549	-875.91669	-78.82135	141.22260	-882.70288	295.92331	144.47633	
275	5.480	-232.18030	117.28560	1507.43213	-432.67459	-63.58212	1294.32166	-446.37802	273.53473	1298.60681	-540.41095	94.08018	1124.68445	-763.24133	-13.38406	1007.49786	-772.88184	233.59117	1029.21936	-951.80774	82.24220	1084.80115	-832.89276	-80.16273	861.77246	-746.46271	-11.47829	804.40198	-830.27258	-70.63667	745.32849	-816.27277	-42.52657	606.21619	-802.98230	64.51662	565.98920	-812.93097	-39.75955	558.86273	-754.25366	13.29027	524.43414	-834.19403	-54.14764	471.24207	-761.60309	-23.50644	201.93733	-648.31970	-68.81900	160.78255	-607.16864	-76.25070	157.01433	-550.14899	-28.68102	162.49959	-598.37933	26.07442	166.23930	-726.59521	65.74283	218.54323	-672.99847	51.58575	161.28479	-793.47717	36.06409	172.25256	-865.86420	279.24347	864.13159	-754.32251	208.96797	816.17517	-843.85669	273.47992	730.63580	-847.82098	249.92058	626.93042	-794.69653	142.59309	570.96765	-832.80188	246.76178	563.84943	-769.70007	205.25375	536.41913	-853.36383	259.05188	483.75995	-773.31195	229.52910	201.86272	-661.23584	299.29559	156.24582	-624.52155	307.72141	157.72116	-557.98035	255.59375	163.78049	-594.12122	220.25383	174.16206	-719.81476	157.17397	222.77107	-676.09808	175.17310	162.06367	-798.27325	179.60271	181.72466	-528.02490	304.05771	146.26183	-517.90674	-72.66228	142.56844	-875.93311	-78.82159	141.26314	-882.73987	295.90277	144.45238	
276	5.500	-228.51035	117.38537	1498.29932	-429.21414	-62.58276	1286.75073	-443.08716	273.34732	1291.24646	-539.13440	94.10533	1119.15894	-765.72919	-12.43721	1005.72656	-774.69995	233.98642	1027.71509	-953.32745	82.82049	1085.12964	-835.24146	-79.87914	861.34174	-748.79846	-10.94218	804.07855	-832.24335	-70.24861	744.84314	-817.97369	-42.18422	605.98438	-804.27612	64.68645	565.83173	-814.32355	-39.42452	558.52753	-755.58984	13.61352	524.28522	-835.30658	-53.84174	470.90457	-761.65381	-23.51475	201.89467	-648.25745	-68.70898	160.78014	-607.14484	-76.15943	157.01372	-550.19086	-28.57579	162.48021	-598.39673	26.07998	166.24831	-726.70667	65.71555	218.42790	-672.99524	51.59088	161.34708	-793.55664	36.13613	172.24797	-868.03198	279.92175	863.66528	-756.71851	209.39960	815.73749	-845.77673	274.20441	730.06824	-849.40649	250.25603	626.35260	-796.03290	142.71820	570.82758	-834.14490	247.02376	563.45178	-771.04437	205.58977	536.27026	-854.41254	259.29431	483.37320	-773.32288	229.53281	201.76767	-661.21765	299.29498	156.26585	-624.46838	307.73294	157.73106	-558.02368	255.61511	163.78696	-594.10229	220.23854	174.18240	-719.88641	157.17513	222.90176	-676.07684	175.14632	162.13641	-798.28882	179.62813	181.60799	-528.05792	304.02448	146.22536	-517.92889	-72.62997	142.58824	-875.92493	-78.78634	141.24158	-882.77979	295.90363	144.43611	
